<svg width="29" height="29" viewBox="0 0 29 29" fill="none" xmlns="http://www.w3.org/2000/svg">
<path fill-rule="evenodd" clip-rule="evenodd" d="M14.1791 0.191856C14.1791 0.233251 13.8106 0.258407 13.2044 0.258407C12.6033 0.258407 12.2213 0.284295 12.2076 0.325956C12.1955 0.363092 11.9872 0.41234 11.7448 0.435366C11.5024 0.45846 11.3041 0.502916 11.3041 0.534261C11.3041 0.56554 11.1571 0.591162 10.9774 0.591162C10.7977 0.591162 10.6507 0.620777 10.6507 0.656914C10.6507 0.693118 10.5331 0.741834 10.3893 0.76526C10.2456 0.788686 10.128 0.83394 10.128 0.865885C10.128 0.897829 10.0229 0.923917 9.89462 0.923917C9.76623 0.923917 9.61712 0.968839 9.56321 1.02374C9.50931 1.07865 9.39378 1.12357 9.30655 1.12357C9.21926 1.12357 9.14784 1.15352 9.14784 1.19012C9.14784 1.22672 9.07433 1.25667 8.98449 1.25667C8.89465 1.25667 8.82114 1.28529 8.82114 1.32023C8.82114 1.35517 8.71823 1.40342 8.59245 1.42744C8.46667 1.45147 8.36375 1.49779 8.36375 1.53026C8.36375 1.56281 8.29025 1.58943 8.2004 1.58943C8.11056 1.58943 8.03705 1.61611 8.03705 1.64879C8.03705 1.6814 7.96354 1.72692 7.8737 1.74988C7.78386 1.77284 7.71035 1.82102 7.71035 1.8569C7.71035 1.89283 7.65017 1.92218 7.57653 1.92218C7.50296 1.92218 7.37463 1.99705 7.29138 2.08856C7.20807 2.18007 7.0772 2.25494 7.00042 2.25494C6.92371 2.25494 6.86092 2.28429 6.86092 2.32022C6.86092 2.3561 6.78741 2.40428 6.69757 2.42724C6.60772 2.4502 6.53422 2.49572 6.53422 2.52833C6.53422 2.56101 6.50272 2.58769 6.46424 2.58769C6.42568 2.58769 6.35322 2.62516 6.30311 2.67088C6.10146 2.85509 6.01495 2.92045 5.97274 2.92045C5.94837 2.92045 5.86036 2.99532 5.77705 3.08682C5.6938 3.17833 5.59351 3.2532 5.55411 3.2532C5.51471 3.2532 5.41441 3.32807 5.33116 3.41958C5.24785 3.51109 5.15899 3.58596 5.13357 3.58596C5.06235 3.58596 4.9007 3.76751 4.9007 3.84744C4.9007 3.88663 4.86921 3.91871 4.83072 3.91871C4.74022 3.91871 4.574 4.08802 4.574 4.18019C4.574 4.21939 4.5425 4.25147 4.50402 4.25147C4.43887 4.25147 4.3849 4.291 4.1679 4.49784C4.0154 4.64319 3.92059 4.77729 3.92059 4.84763C3.92059 4.88577 3.8891 4.91698 3.85061 4.91698C3.7722 4.91698 3.59389 5.08162 3.59389 5.1539C3.59389 5.17965 3.49097 5.29958 3.36519 5.42044C3.23941 5.54123 3.1365 5.67067 3.1365 5.70807C3.1365 5.74547 3.06299 5.85095 2.97315 5.94246C2.88331 6.03397 2.8098 6.14019 2.8098 6.17845C2.8098 6.21672 2.76569 6.248 2.71179 6.248C2.65527 6.248 2.61378 6.30816 2.61378 6.39008C2.61378 6.46828 2.54027 6.60158 2.45042 6.68644C2.36058 6.77122 2.28707 6.88695 2.28707 6.94359C2.28707 7.00029 2.25767 7.04661 2.22173 7.04661C2.1858 7.04661 2.15639 7.09153 2.15639 7.14644C2.15639 7.20134 2.11229 7.24626 2.05838 7.24626C1.99742 7.24626 1.96037 7.30909 1.96037 7.41264C1.96037 7.50415 1.93417 7.57902 1.90209 7.57902C1.87007 7.57902 1.82538 7.65389 1.80283 7.74539C1.78029 7.8369 1.73298 7.91177 1.69777 7.91177C1.66248 7.91177 1.63367 7.98664 1.63367 8.07815C1.63367 8.16966 1.60747 8.24453 1.57538 8.24453C1.54337 8.24453 1.49867 8.3194 1.47613 8.4109C1.45359 8.50241 1.40628 8.57728 1.37106 8.57728C1.33578 8.57728 1.30696 8.65215 1.30696 8.74366C1.30696 8.83517 1.28076 8.91004 1.24868 8.91004C1.21666 8.91004 1.17197 8.98491 1.14943 9.07641C1.12688 9.16792 1.07958 9.24279 1.04436 9.24279C1.00908 9.24279 0.98026 9.34761 0.98026 9.47572C0.98026 9.60383 0.954647 9.70865 0.923283 9.70865C0.89192 9.70865 0.847488 9.82844 0.824488 9.97485C0.801488 10.1213 0.753659 10.2411 0.718114 10.2411C0.682634 10.2411 0.653557 10.3459 0.653557 10.474C0.653557 10.6021 0.627944 10.7069 0.596645 10.7069C0.565347 10.7069 0.520197 10.8567 0.496348 11.0397C0.472564 11.2227 0.424669 11.3724 0.389973 11.3724C0.355277 11.3724 0.326854 11.5371 0.326854 11.7385C0.326854 11.9398 0.301698 12.1045 0.270922 12.1045C0.240147 12.1045 0.194866 12.3515 0.170298 12.6535C0.145664 12.9555 0.0973773 13.2126 0.0628774 13.2247C-0.0194518 13.2539 -0.0216733 16.2306 0.0605905 16.2306C0.0938489 16.2306 0.141744 16.5002 0.167031 16.8296C0.192317 17.159 0.238644 17.4286 0.269942 17.4286C0.30124 17.4286 0.326854 17.6083 0.326854 17.8279C0.326854 18.0475 0.353513 18.2272 0.386052 18.2272C0.418657 18.2272 0.465507 18.3769 0.490205 18.5599C0.514904 18.7429 0.561753 18.8927 0.594358 18.8927C0.626898 18.8927 0.653557 18.9996 0.653557 19.1303C0.653557 19.2611 0.697662 19.413 0.751568 19.4679C0.805474 19.5228 0.849579 19.6405 0.849579 19.7293C0.849579 19.8182 0.878982 19.891 0.91492 19.891C0.950857 19.891 0.98026 19.9926 0.98026 20.1168C0.98026 20.2561 1.01777 20.3572 1.07827 20.3809C1.13218 20.4019 1.17628 20.48 1.17628 20.5544C1.17628 20.6287 1.20569 20.6896 1.24162 20.6896C1.27756 20.6896 1.30696 20.7794 1.30696 20.8892C1.30696 20.999 1.33578 21.0889 1.37106 21.0889C1.40628 21.0889 1.45359 21.1637 1.47613 21.2552C1.49867 21.3468 1.54337 21.4216 1.57538 21.4216C1.60747 21.4216 1.63367 21.4965 1.63367 21.588C1.63367 21.6795 1.66307 21.7544 1.69901 21.7544C1.73494 21.7544 1.76435 21.8143 1.76435 21.8875C1.76435 21.9607 1.73494 22.0206 1.69901 22.0206C1.66307 22.0206 1.63367 22.0655 1.63367 22.1204C1.63367 22.1753 1.60747 22.2202 1.57538 22.2202C1.54337 22.2202 1.49867 22.2951 1.47613 22.3866C1.45359 22.4781 1.40628 22.553 1.37106 22.553C1.33578 22.553 1.30696 22.6279 1.30696 22.7194C1.30696 22.8109 1.27887 22.8857 1.24456 22.8857C1.21026 22.8857 1.16289 22.9906 1.1393 23.1187C1.11571 23.2468 1.07023 23.3516 1.03835 23.3516C1.0064 23.3516 0.98026 23.6511 0.98026 24.0171C0.98026 24.4111 1.00659 24.6826 1.04482 24.6826C1.08036 24.6826 1.12819 24.8024 1.15119 24.9488C1.17419 25.0952 1.21862 25.215 1.24999 25.215C1.28135 25.215 1.30696 25.2899 1.30696 25.3814C1.30696 25.4729 1.33441 25.5478 1.36793 25.5478C1.40145 25.5478 1.44947 25.6151 1.47469 25.6975C1.49998 25.7799 1.55055 25.8669 1.58721 25.8909C1.62641 25.9164 1.58231 26.0019 1.48044 26.0981C1.38505 26.1881 1.30696 26.2958 1.30696 26.3374C1.30696 26.3789 1.27756 26.413 1.24162 26.413C1.20569 26.413 1.17628 26.5178 1.17628 26.6459C1.17628 26.774 1.20569 26.8788 1.24162 26.8788C1.27756 26.8788 1.30696 26.9237 1.30696 26.9786C1.30696 27.0335 1.35107 27.0785 1.40497 27.0785C1.45888 27.0785 1.50299 27.1084 1.50299 27.145C1.50299 27.1816 1.6059 27.2116 1.73168 27.2116C1.85746 27.2116 1.96037 27.1822 1.96037 27.1463C1.96037 27.1104 2.03388 27.0622 2.12372 27.0393C2.21357 27.0163 2.28707 26.9708 2.28707 26.9382C2.28707 26.9055 2.36058 26.8788 2.45042 26.8788C2.5521 26.8788 2.61378 26.8411 2.61378 26.779C2.61378 26.7169 2.67546 26.6792 2.77713 26.6792C2.8788 26.6792 2.94048 26.7169 2.94048 26.779C2.94048 26.8339 2.9693 26.8788 3.00458 26.8788C3.0398 26.8788 3.0871 26.9537 3.10965 27.0452C3.13219 27.1367 3.17688 27.2116 3.2089 27.2116C3.24098 27.2116 3.26718 27.2864 3.26718 27.3779C3.26718 27.4694 3.296 27.5443 3.33128 27.5443C3.3665 27.5443 3.41381 27.6192 3.43635 27.7107C3.45889 27.8022 3.50359 27.8771 3.5356 27.8771C3.56769 27.8771 3.59389 27.9092 3.59389 27.9483C3.59389 28.0405 3.76011 28.2098 3.85061 28.2098C3.8891 28.2098 3.92059 28.2398 3.92059 28.2764C3.92059 28.3981 4.19744 28.3451 4.32132 28.1996C4.46821 28.0271 4.4801 27.7244 4.3453 27.5871C4.2914 27.5322 4.24729 27.4253 4.24729 27.3494C4.24729 27.2736 4.21848 27.2116 4.18319 27.2116C4.14798 27.2116 4.10067 27.1367 4.07813 27.0452C4.05558 26.9537 4.01089 26.8788 3.97887 26.8788C3.94679 26.8788 3.92059 26.8039 3.92059 26.7124C3.92059 26.6089 3.88354 26.5461 3.82258 26.5461C3.76867 26.5461 3.72457 26.5037 3.72457 26.4517C3.72457 26.3999 3.68798 26.3451 3.64322 26.3299C3.5224 26.2888 3.94797 25.8805 4.11158 25.8805C4.1862 25.8805 4.24729 25.8512 4.24729 25.8153C4.24729 25.7794 4.3208 25.7312 4.41064 25.7082C4.50049 25.6853 4.574 25.6398 4.574 25.6072C4.574 25.5745 4.6181 25.5478 4.67201 25.5478C4.72591 25.5478 4.77002 25.5184 4.77002 25.4825C4.77002 25.4466 4.84353 25.3984 4.93337 25.3755C5.02321 25.3525 5.09672 25.307 5.09672 25.2744C5.09672 25.2417 5.14494 25.215 5.20388 25.215C5.26282 25.215 5.34443 25.1685 5.38527 25.1116C5.47674 24.9842 5.66473 25.0459 5.71935 25.2212C5.74111 25.291 5.78633 25.3481 5.81985 25.3481C5.85337 25.3481 5.88081 25.4094 5.88081 25.4844C5.88081 25.5594 5.95432 25.6901 6.04416 25.7749C6.134 25.8597 6.20751 25.993 6.20751 26.0712C6.20751 26.1493 6.23496 26.2133 6.26848 26.2133C6.302 26.2133 6.34996 26.2793 6.37511 26.3599C6.4002 26.4406 6.45888 26.5454 6.50553 26.5928C6.60485 26.6941 6.9916 26.7098 6.9916 26.6126C6.9916 26.576 7.03571 26.5461 7.08961 26.5461C7.16364 26.5461 7.18762 26.4647 7.18762 26.2133C7.18762 26.0303 7.15881 25.8805 7.12352 25.8805C7.0883 25.8805 7.041 25.8057 7.01845 25.7142C6.99591 25.6227 6.95122 25.5478 6.9192 25.5478C6.88712 25.5478 6.86092 25.5029 6.86092 25.448C6.86092 25.3931 6.8321 25.3481 6.79682 25.3481C6.7616 25.3481 6.71429 25.2733 6.69175 25.1818C6.66921 25.0902 6.62452 25.0154 6.5925 25.0154C6.56042 25.0154 6.53422 24.9555 6.53422 24.8823C6.53422 24.8091 6.50481 24.7492 6.46887 24.7492C6.43294 24.7492 6.40353 24.7043 6.40353 24.6493C6.40353 24.5944 6.43294 24.5495 6.46887 24.5495C6.50481 24.5495 6.53422 24.5046 6.53422 24.4497C6.53422 24.3948 6.57832 24.3499 6.63223 24.3499C6.68613 24.3499 6.73024 24.3199 6.73024 24.2833C6.73024 24.2467 6.79114 24.2168 6.86556 24.2168C6.99114 24.2168 7.03989 24.1869 7.26701 23.9704C7.46329 23.7833 7.51433 23.6768 7.51433 23.4542C7.51433 23.3246 7.48283 23.2185 7.44435 23.2185C7.40579 23.2185 7.3268 23.1701 7.26865 23.1109C7.18841 23.0292 7.08772 23.0123 6.85001 23.041C6.52441 23.0803 6.33819 22.9858 6.33819 22.7812C6.33819 22.7289 6.30879 22.6861 6.27285 22.6861C6.23692 22.6861 6.20751 22.6425 6.20751 22.5892C6.20751 22.4635 5.54293 21.7809 5.36449 21.7232C5.28908 21.6988 5.2274 21.651 5.2274 21.6168C5.2274 21.5827 5.15389 21.5547 5.06405 21.5547C4.97421 21.5547 4.9007 21.528 4.9007 21.4954C4.9007 21.4628 4.82719 21.4172 4.73735 21.3943C4.6475 21.3713 4.574 21.3231 4.574 21.2873C4.574 21.2478 4.2254 21.222 3.69314 21.222H2.81228L2.77131 21.0556C2.74877 20.9641 2.70408 20.8892 2.67206 20.8892C2.63998 20.8892 2.61378 20.8143 2.61378 20.7228C2.61378 20.6313 2.58496 20.5565 2.54968 20.5565C2.51446 20.5565 2.46715 20.4816 2.44461 20.3901C2.42207 20.2986 2.37737 20.2237 2.34536 20.2237C2.31327 20.2237 2.28707 20.1189 2.28707 19.9908C2.28707 19.8627 2.26002 19.7579 2.22689 19.7579C2.19383 19.7579 2.14738 19.668 2.12372 19.5582C2.10007 19.4484 2.05361 19.3585 2.02055 19.3585C1.98742 19.3585 1.96037 19.2562 1.96037 19.1311C1.96037 19.0061 1.92809 18.8928 1.88863 18.8794C1.84916 18.866 1.8012 18.7138 1.78212 18.5411C1.76298 18.3685 1.72175 18.2272 1.69051 18.2272C1.65921 18.2272 1.63367 18.08 1.63367 17.8999C1.63367 17.72 1.60315 17.5624 1.56584 17.5498C1.52853 17.537 1.48012 17.31 1.45836 17.045C1.43653 16.7802 1.39354 16.5634 1.36283 16.5634C1.33212 16.5634 1.30696 15.7398 1.30696 14.7333C1.30696 13.7242 1.33277 12.9031 1.36446 12.9031C1.39609 12.9031 1.4351 12.7176 1.45124 12.4909C1.46764 12.2596 1.51409 12.0674 1.55709 12.0528C1.60178 12.0377 1.63367 11.8907 1.63367 11.6997C1.63367 11.5197 1.66307 11.3724 1.69901 11.3724C1.73494 11.3724 1.76435 11.2697 1.76435 11.1442C1.76435 11.0188 1.80845 10.8712 1.86236 10.8163C1.91626 10.7614 1.96037 10.6095 1.96037 10.4787C1.96037 10.348 1.98977 10.2411 2.02571 10.2411C2.06165 10.2411 2.09105 10.1662 2.09105 10.0747C2.09105 9.97113 2.1281 9.9083 2.18906 9.9083C2.25754 9.9083 2.28707 9.83802 2.28707 9.67537C2.28707 9.54726 2.31327 9.44244 2.34536 9.44244C2.37737 9.44244 2.42207 9.36758 2.44461 9.27607C2.46715 9.18456 2.51446 9.10969 2.54968 9.10969C2.58496 9.10969 2.61378 9.03482 2.61378 8.94331C2.61378 8.85181 2.63998 8.77694 2.67206 8.77694C2.70408 8.77694 2.74877 8.70207 2.77131 8.61056C2.79386 8.51905 2.84116 8.44418 2.87638 8.44418C2.91166 8.44418 2.94048 8.36931 2.94048 8.2778C2.94048 8.18629 2.96988 8.11143 3.00582 8.11143C3.04176 8.11143 3.07116 8.0665 3.07116 8.0116C3.07116 7.95669 3.11527 7.91177 3.16917 7.91177C3.22569 7.91177 3.26718 7.85161 3.26718 7.76969C3.26718 7.69149 3.34069 7.55819 3.43054 7.47333C3.52038 7.38855 3.59389 7.27282 3.59389 7.21618C3.59389 7.15948 3.62329 7.11316 3.65923 7.11316C3.69516 7.11316 3.72457 7.06824 3.72457 7.01333C3.72457 6.95843 3.76867 6.91351 3.82258 6.91351C3.87648 6.91351 3.92059 6.88143 3.92059 6.84223C3.92059 6.80297 3.95731 6.72916 4.00227 6.67812C4.18149 6.47454 4.24729 6.38476 4.24729 6.3437C4.24729 6.32007 4.42371 6.12488 4.63934 5.90999C4.85496 5.69509 5.03138 5.48858 5.03138 5.45105C5.03138 5.41351 5.0615 5.38283 5.09835 5.38283C5.13521 5.38283 5.33796 5.20315 5.54894 4.98353C5.75993 4.76391 5.95242 4.58422 5.97666 4.58422C6.04625 4.58422 6.20751 4.40154 6.20751 4.32274C6.20751 4.28354 6.28102 4.25147 6.37086 4.25147C6.46071 4.25147 6.53422 4.21939 6.53422 4.18019C6.53422 4.08802 6.70044 3.91871 6.79094 3.91871C6.82942 3.91871 6.86092 3.88936 6.86092 3.85343C6.86092 3.81755 6.93443 3.76937 7.02427 3.74641C7.11411 3.72345 7.18762 3.67793 7.18762 3.64532C7.18762 3.61264 7.23173 3.58596 7.28563 3.58596C7.33954 3.58596 7.38364 3.55661 7.38364 3.52067C7.38364 3.4848 7.45715 3.43662 7.547 3.41366C7.63684 3.3907 7.71035 3.34518 7.71035 3.31257C7.71035 3.27989 7.76602 3.2532 7.83404 3.2532C7.90206 3.2532 7.97465 3.20828 7.99536 3.15338C8.01601 3.09847 8.09265 3.05355 8.16571 3.05355C8.23869 3.05355 8.29841 3.0236 8.29841 2.987C8.29841 2.9504 8.36879 2.92045 8.45477 2.92045C8.54076 2.92045 8.62806 2.87553 8.64877 2.82062C8.66942 2.76572 8.74606 2.72079 8.81911 2.72079C8.8921 2.72079 8.95182 2.69085 8.95182 2.65424C8.95182 2.61764 9.02742 2.58769 9.11981 2.58769C9.21227 2.58769 9.33197 2.54277 9.38588 2.48787C9.43978 2.43296 9.55531 2.38804 9.64254 2.38804C9.72983 2.38804 9.80125 2.35809 9.80125 2.32149C9.80125 2.28489 9.87476 2.25494 9.9646 2.25494C10.0544 2.25494 10.128 2.22778 10.128 2.19464C10.128 2.16143 10.275 2.11372 10.4547 2.08856C10.6343 2.0634 10.7814 2.01569 10.7814 1.98248C10.7814 1.94933 10.899 1.92218 11.0427 1.92218C11.1865 1.92218 11.3041 1.8937 11.3041 1.85896C11.3041 1.82415 11.4805 1.77537 11.6961 1.75048C11.9118 1.72566 12.0882 1.67927 12.0882 1.64739C12.0882 1.61552 12.4116 1.58943 12.8069 1.58943C13.2425 1.58943 13.5257 1.56321 13.5257 1.52288C13.5257 1.48195 13.8524 1.45633 14.3751 1.45633C14.8978 1.45633 15.2245 1.48195 15.2245 1.52288C15.2245 1.56321 15.5076 1.58943 15.9433 1.58943C16.3386 1.58943 16.662 1.61552 16.662 1.64739C16.662 1.67927 16.8384 1.72566 17.0541 1.75048C17.2697 1.77537 17.4461 1.82415 17.4461 1.85896C17.4461 1.8937 17.5637 1.92218 17.7075 1.92218C17.8512 1.92218 17.9688 1.94933 17.9688 1.98248C17.9688 2.01569 18.1158 2.0634 18.2955 2.08856C18.4752 2.11372 18.6222 2.16143 18.6222 2.19464C18.6222 2.22778 18.6957 2.25494 18.7856 2.25494C18.8754 2.25494 18.9489 2.28489 18.9489 2.32149C18.9489 2.35809 19.0204 2.38804 19.1076 2.38804C19.1949 2.38804 19.3104 2.43296 19.3643 2.48787C19.4182 2.54277 19.5379 2.58769 19.6304 2.58769C19.7228 2.58769 19.7984 2.61764 19.7984 2.65424C19.7984 2.69085 19.8581 2.72079 19.9311 2.72079C20.0041 2.72079 20.0808 2.76572 20.1014 2.82062C20.1221 2.87553 20.2094 2.92045 20.2954 2.92045C20.3814 2.92045 20.4518 2.9498 20.4518 2.98573C20.4518 3.0216 20.5253 3.06979 20.6151 3.09275C20.705 3.11571 20.7785 3.16123 20.7785 3.19384C20.7785 3.22652 20.8373 3.2532 20.9092 3.2532C20.981 3.2532 21.0398 3.28315 21.0398 3.31975C21.0398 3.35636 21.0839 3.3863 21.1379 3.3863C21.1918 3.3863 21.2359 3.43123 21.2359 3.48613C21.2359 3.54822 21.2975 3.58596 21.3992 3.58596C21.4891 3.58596 21.5626 3.61531 21.5626 3.65124C21.5626 3.68711 21.6361 3.7353 21.7259 3.75826C21.8158 3.78122 21.8893 3.82674 21.8893 3.85935C21.8893 3.89203 21.9208 3.91871 21.9593 3.91871C22.0497 3.91871 22.216 4.08802 22.216 4.18019C22.216 4.21939 22.2895 4.25147 22.3793 4.25147C22.4692 4.25147 22.5427 4.28354 22.5427 4.32274C22.5427 4.40154 22.7039 4.58422 22.7735 4.58422C22.7978 4.58422 22.9903 4.76391 23.2012 4.98353C23.4122 5.20315 23.615 5.38283 23.6518 5.38283C23.6887 5.38283 23.7188 5.41351 23.7188 5.45105C23.7188 5.48858 23.8952 5.69509 24.1108 5.90999C24.3265 6.12488 24.5029 6.32094 24.5029 6.34563C24.5029 6.41651 24.6823 6.58075 24.7596 6.58075C24.7981 6.58075 24.8296 6.65562 24.8296 6.74713C24.8296 6.85068 24.8666 6.91351 24.9276 6.91351C24.9815 6.91351 25.0256 6.95843 25.0256 7.01333C25.0256 7.06824 25.055 7.11316 25.091 7.11316C25.1269 7.11316 25.1563 7.15948 25.1563 7.21618C25.1563 7.27282 25.2298 7.38855 25.3197 7.47333C25.4095 7.55819 25.483 7.69149 25.483 7.76969C25.483 7.85161 25.5245 7.91177 25.581 7.91177C25.6349 7.91177 25.679 7.95669 25.679 8.0116C25.679 8.0665 25.7084 8.11143 25.7444 8.11143C25.7803 8.11143 25.8097 8.18629 25.8097 8.2778C25.8097 8.36931 25.8385 8.44418 25.8738 8.44418C25.909 8.44418 25.9563 8.51905 25.9789 8.61056C26.0014 8.70207 26.0461 8.77694 26.0781 8.77694C26.1102 8.77694 26.1364 8.85181 26.1364 8.94331C26.1364 9.03482 26.1652 9.10969 26.2005 9.10969C26.2357 9.10969 26.283 9.18456 26.3056 9.27607C26.3281 9.36758 26.3728 9.44244 26.4048 9.44244C26.4369 9.44244 26.4631 9.54726 26.4631 9.67537C26.4631 9.80348 26.4919 9.9083 26.5272 9.9083C26.5624 9.9083 26.6097 9.98317 26.6323 10.0747C26.6548 10.1662 26.6995 10.2411 26.7315 10.2411C26.7636 10.2411 26.7898 10.3608 26.7898 10.5073C26.7898 10.6537 26.8174 10.7735 26.8512 10.7735C26.8849 10.7735 26.9323 10.9082 26.9566 11.0729C26.9808 11.2377 27.0267 11.3724 27.0586 11.3724C27.0905 11.3724 27.1165 11.5197 27.1165 11.6997C27.1165 11.8796 27.1477 12.0374 27.1858 12.0504C27.2239 12.0633 27.2722 12.3053 27.2932 12.5883C27.3142 12.8712 27.3566 13.1028 27.3873 13.1028C27.4181 13.1028 27.4432 13.8814 27.4432 14.8331C27.4432 15.7848 27.4181 16.5634 27.3874 16.5634C27.3566 16.5634 27.3137 16.7802 27.2918 17.045C27.2701 17.31 27.2217 17.537 27.1843 17.5498C27.147 17.5624 27.1165 17.72 27.1165 17.8999C27.1165 18.08 27.0899 18.2272 27.0573 18.2272C27.0247 18.2272 26.9779 18.3769 26.9532 18.5599C26.9285 18.7429 26.8816 18.8927 26.849 18.8927C26.8165 18.8927 26.7898 18.9975 26.7898 19.1256C26.7898 19.2537 26.7628 19.3585 26.7296 19.3585C26.6966 19.3585 26.6501 19.4484 26.6265 19.5582C26.6028 19.668 26.5564 19.7579 26.5233 19.7579C26.4902 19.7579 26.4631 19.8627 26.4631 19.9908C26.4631 20.1189 26.4369 20.2237 26.4048 20.2237C26.3728 20.2237 26.3281 20.2986 26.3056 20.3901C26.283 20.4816 26.2357 20.5565 26.2005 20.5565C26.1652 20.5565 26.1364 20.6313 26.1364 20.7228C26.1364 20.8143 26.1102 20.8892 26.0781 20.8892C26.0461 20.8892 26.0014 20.9641 25.9789 21.0556C25.9563 21.1471 25.909 21.222 25.8738 21.222C25.8385 21.222 25.8097 21.2859 25.8097 21.3641C25.8097 21.4423 25.7362 21.5756 25.6464 21.6604C25.5565 21.7452 25.483 21.8609 25.483 21.9176C25.483 21.9743 25.4536 22.0206 25.4177 22.0206C25.3817 22.0206 25.3523 22.0655 25.3523 22.1204C25.3523 22.1753 25.3082 22.2202 25.2543 22.2202C25.1978 22.2202 25.1563 22.2804 25.1563 22.3623C25.1563 22.4405 25.0828 22.5738 24.9929 22.6587C24.9031 22.7435 24.8296 22.8456 24.8296 22.8857C24.8296 22.9259 24.7561 23.028 24.6662 23.1128C24.5764 23.1977 24.5029 23.2882 24.5029 23.3141C24.5029 23.3866 24.3246 23.5513 24.2462 23.5513C24.2077 23.5513 24.1762 23.5833 24.1762 23.6225C24.1762 23.7147 24.01 23.884 23.9195 23.884C23.881 23.884 23.8495 23.9589 23.8495 24.0504C23.8495 24.1419 23.818 24.2168 23.7795 24.2168C23.741 24.2168 23.6685 24.2542 23.6184 24.3C23.4022 24.4975 23.3283 24.5495 23.2642 24.5495C23.2267 24.5495 23.1961 24.5816 23.1961 24.6208C23.1961 24.713 23.0299 24.8823 22.9394 24.8823C22.9009 24.8823 22.8694 24.9144 22.8694 24.9536C22.8694 25.0335 22.7077 25.215 22.6365 25.215C22.6111 25.215 22.5222 25.2899 22.4389 25.3814C22.3557 25.4729 22.2554 25.5478 22.216 25.5478C22.1766 25.5478 22.0763 25.6227 21.993 25.7142C21.9097 25.8057 21.7788 25.8805 21.7021 25.8805C21.6216 25.8805 21.5626 25.9228 21.5626 25.9804C21.5626 26.0353 21.5185 26.0802 21.4646 26.0802C21.4106 26.0802 21.3665 26.1101 21.3665 26.1467C21.3665 26.1833 21.3109 26.2133 21.2429 26.2133C21.1748 26.2133 21.1022 26.2582 21.0815 26.3131C21.0609 26.368 20.9842 26.413 20.9112 26.413C20.8382 26.413 20.7785 26.4429 20.7785 26.4795C20.7785 26.5161 20.7344 26.5461 20.6805 26.5461C20.6266 26.5461 20.5825 26.5727 20.5825 26.6054C20.5825 26.638 20.5089 26.6835 20.4191 26.7065C20.3293 26.7295 20.2558 26.7777 20.2558 26.8135C20.2558 26.8495 20.1822 26.8788 20.0924 26.8788C20.0026 26.8788 19.929 26.9074 19.929 26.9424C19.929 26.9773 19.8261 27.0256 19.7004 27.0496C19.5746 27.0736 19.4717 27.1199 19.4717 27.1524C19.4717 27.1849 19.3961 27.2116 19.3037 27.2116C19.2112 27.2116 19.0915 27.2565 19.0376 27.3114C18.9837 27.3663 18.8682 27.4112 18.7809 27.4112C18.6937 27.4112 18.6222 27.4412 18.6222 27.4778C18.6222 27.5162 18.4153 27.5443 18.1322 27.5443C17.8491 27.5443 17.6421 27.5724 17.6421 27.6109C17.6421 27.6508 17.3808 27.6774 16.9887 27.6774C16.5967 27.6774 16.3353 27.6508 16.3353 27.6109C16.3353 27.5739 16.1611 27.5443 15.9433 27.5443C15.7276 27.5443 15.5512 27.5168 15.5512 27.483C15.5512 27.4493 15.463 27.402 15.3552 27.3779C15.2474 27.3538 15.1592 27.3065 15.1592 27.2729C15.1592 27.2391 15.0983 27.2116 15.0239 27.2116C14.9494 27.2116 14.8475 27.1742 14.7974 27.1284C14.5812 26.9309 14.5073 26.8788 14.4432 26.8788C14.4057 26.8788 14.3751 26.8489 14.3751 26.8123C14.3751 26.7757 14.3335 26.7457 14.2827 26.7457C14.1742 26.7457 13.7217 26.3147 13.7217 26.2113C13.7217 26.1723 13.6482 26.071 13.5583 25.9862C13.4685 25.9014 13.395 25.8109 13.395 25.785C13.395 25.7591 13.3583 25.6962 13.3133 25.6452C13.1047 25.4083 13.0683 25.3447 13.0683 25.2178C13.0683 25.1431 13.0412 25.0819 13.0081 25.0819C12.975 25.0819 12.9286 24.9921 12.9049 24.8823C12.8813 24.7725 12.8348 24.6826 12.8018 24.6826C12.7686 24.6826 12.7416 24.5907 12.7416 24.4782C12.7416 24.3658 12.6975 24.2289 12.6436 24.174C12.5897 24.1191 12.5456 24.0014 12.5456 23.9126C12.5456 23.8236 12.5162 23.7509 12.4802 23.7509C12.4443 23.7509 12.4149 23.5887 12.4149 23.3904C12.4149 23.1916 12.3833 23.0192 12.3444 23.006C12.3056 22.9928 12.2573 22.7358 12.237 22.4348C12.2168 22.1338 12.175 21.8875 12.1442 21.8875C12.1134 21.8875 12.0882 21.2137 12.0882 20.3901C12.0882 19.5665 12.1133 18.8927 12.144 18.8927C12.1747 18.8927 12.2177 18.6759 12.2396 18.4111C12.2613 18.1461 12.3097 17.919 12.3471 17.9063C12.3844 17.8937 12.4149 17.7061 12.4149 17.4896C12.4149 17.273 12.4405 17.0958 12.4718 17.0958C12.5032 17.0958 12.5476 16.976 12.5706 16.8296C12.5936 16.6832 12.6415 16.5634 12.677 16.5634C12.7125 16.5634 12.7416 16.4436 12.7416 16.2972C12.7416 16.1508 12.7677 16.031 12.7997 16.031C12.8316 16.031 12.877 15.9262 12.9006 15.7981C12.9242 15.67 12.9716 15.5651 13.0059 15.5651C13.0402 15.5651 13.0683 15.4903 13.0683 15.3988C13.0683 15.3073 13.0977 15.2324 13.1336 15.2324C13.1696 15.2324 13.199 15.1749 13.199 15.1047C13.199 14.9308 13.2659 14.7665 13.3366 14.7665C13.3687 14.7665 13.395 14.9163 13.395 15.0993C13.395 15.2823 13.3694 15.432 13.3381 15.432C13.3068 15.432 13.2612 15.6117 13.2369 15.8313C13.2124 16.051 13.1645 16.2306 13.1304 16.2306C13.0925 16.2306 13.0683 17.0101 13.0683 18.2272C13.0683 19.3253 13.0939 20.2237 13.1253 20.2237C13.1566 20.2237 13.2018 20.348 13.2256 20.4998L13.2689 20.7759L13.9681 20.7356C14.3597 20.713 14.6772 20.6647 14.69 20.6259C14.7025 20.5877 14.8131 20.5565 14.9359 20.5565C15.0587 20.5565 15.1592 20.5298 15.1592 20.4971C15.1592 20.4645 15.2327 20.419 15.3225 20.396C15.4124 20.373 15.4859 20.3249 15.4859 20.289C15.4859 20.2531 15.5461 20.2237 15.6197 20.2237C15.6933 20.2237 15.8216 20.1488 15.9048 20.0573C15.9882 19.9658 16.077 19.891 16.1024 19.891C16.1737 19.891 16.3353 19.7094 16.3353 19.6295C16.3353 19.5903 16.3668 19.5582 16.4053 19.5582C16.4838 19.5582 16.662 19.3936 16.662 19.321C16.662 19.2951 16.7355 19.2046 16.8254 19.1198C16.9152 19.035 16.9887 18.9192 16.9887 18.8626C16.9887 18.8059 17.0149 18.7596 17.047 18.7596C17.079 18.7596 17.1237 18.6847 17.1463 18.5932C17.1688 18.5017 17.2161 18.4268 17.2513 18.4268C17.2866 18.4268 17.3154 18.3395 17.3154 18.2327C17.3154 18.126 17.35 18.0269 17.3922 18.0126C17.5027 17.975 17.5054 16.2841 17.395 16.2466C17.3375 16.2271 17.3154 15.9622 17.3154 15.2934C17.3154 14.7203 17.2905 14.3672 17.2501 14.3672C17.2141 14.3672 17.1847 14.3073 17.1847 14.2341C17.1847 14.1609 17.2141 14.101 17.2501 14.101C17.2899 14.101 17.3154 13.8015 17.3154 13.3357C17.3154 12.9147 17.3407 12.5703 17.3716 12.5703C17.4025 12.5703 17.4453 12.3986 17.4665 12.1887C17.4877 11.9788 17.5359 11.7967 17.5736 11.7839C17.6113 11.7711 17.6421 11.6434 17.6421 11.5C17.6421 11.3566 17.6677 11.2393 17.6991 11.2393C17.7305 11.2393 17.7749 11.1195 17.7979 10.9731C17.8209 10.8267 17.8687 10.7069 17.9043 10.7069C17.9398 10.7069 17.9688 10.6021 17.9688 10.474C17.9688 10.3459 17.9982 10.2411 18.0342 10.2411C18.0701 10.2411 18.0995 10.1662 18.0995 10.0747C18.0995 9.97113 18.1366 9.9083 18.1975 9.9083C18.266 9.9083 18.2955 9.83802 18.2955 9.67537C18.2955 9.54726 18.3249 9.44244 18.3609 9.44244C18.3968 9.44244 18.4262 9.39752 18.4262 9.34262C18.4262 9.28771 18.4703 9.24279 18.5242 9.24279C18.5852 9.24279 18.6222 9.17997 18.6222 9.07641C18.6222 8.98491 18.6484 8.91004 18.6805 8.91004C18.7125 8.91004 18.7572 8.83517 18.7798 8.74366C18.8023 8.65215 18.8496 8.57728 18.8848 8.57728C18.9201 8.57728 18.9489 8.51333 18.9489 8.4352C18.9489 8.357 19.0224 8.2237 19.1123 8.13884C19.2021 8.05406 19.2756 7.9362 19.2756 7.8769C19.2756 7.81767 19.3124 7.72743 19.3573 7.67638C19.7102 7.27554 19.6936 7.24626 19.1123 7.24626C18.8428 7.24626 18.6222 7.27475 18.6222 7.30949C18.6222 7.34429 18.4458 7.39307 18.2302 7.41796C18.0146 7.44279 17.8381 7.48917 17.8381 7.52105C17.8381 7.55293 17.7205 7.57902 17.5768 7.57902C17.433 7.57902 17.3154 7.60617 17.3154 7.63931C17.3154 7.67252 17.1684 7.72024 16.9887 7.74539C16.809 7.77055 16.662 7.81827 16.662 7.85148C16.662 7.88462 16.5591 7.91177 16.4333 7.91177C16.3075 7.91177 16.2046 7.93932 16.2046 7.97307C16.2046 8.00674 16.1164 8.05406 16.0086 8.07815C15.9008 8.10224 15.8126 8.14956 15.8126 8.18323C15.8126 8.21697 15.7097 8.24453 15.5839 8.24453C15.4581 8.24453 15.3552 8.27388 15.3552 8.30981C15.3552 8.34569 15.2817 8.39387 15.1919 8.41683C15.102 8.43979 15.0285 8.48531 15.0285 8.51792C15.0285 8.5506 14.9287 8.57728 14.8068 8.57728C14.67 8.57728 14.5707 8.61548 14.5475 8.67711C14.5268 8.73201 14.4502 8.77694 14.3771 8.77694C14.3041 8.77694 14.2444 8.80688 14.2444 8.84349C14.2444 8.88009 14.1709 8.91004 14.0811 8.91004C13.9912 8.91004 13.9177 8.93672 13.9177 8.9694C13.9177 9.00201 13.8442 9.04753 13.7544 9.07049C13.6645 9.09345 13.591 9.14163 13.591 9.17751C13.591 9.21344 13.5308 9.24279 13.4572 9.24279C13.3836 9.24279 13.2553 9.31766 13.172 9.40917C13.0887 9.50068 12.9579 9.57555 12.8811 9.57555C12.8044 9.57555 12.7416 9.6049 12.7416 9.64083C12.7416 9.6767 12.6681 9.72489 12.5782 9.74785C12.4884 9.77081 12.4149 9.81633 12.4149 9.84894C12.4149 9.88162 12.3842 9.9083 12.3468 9.9083C12.2827 9.9083 12.2088 9.96035 11.9926 10.1579C11.9425 10.2036 11.87 10.2411 11.8314 10.2411C11.793 10.2411 11.7615 10.269 11.7615 10.3031C11.7615 10.3373 11.6972 10.386 11.6186 10.4114C11.54 10.4368 11.3822 10.5586 11.2678 10.6821C11.1535 10.8055 11.0393 10.9066 11.014 10.9066C10.943 10.9066 10.7814 11.0882 10.7814 11.168C10.7814 11.2072 10.7499 11.2393 10.7114 11.2393C10.6728 11.2393 10.6004 11.2768 10.5502 11.3225C10.334 11.52 10.2601 11.5721 10.196 11.5721C10.1586 11.5721 10.128 11.6042 10.128 11.6434C10.128 11.6826 10.0912 11.7564 10.0463 11.8075C9.86541 12.0128 9.80125 12.101 9.80125 12.1439C9.80125 12.1688 9.72774 12.2584 9.6379 12.3433C9.54805 12.4281 9.47455 12.5302 9.47455 12.5703C9.47455 12.6105 9.40104 12.7126 9.31119 12.7974C9.22135 12.8823 9.14784 13.0156 9.14784 13.0938C9.14784 13.1719 9.12164 13.2359 9.08956 13.2359C9.05754 13.2359 9.01285 13.3107 8.99031 13.4022C8.96776 13.4937 8.92046 13.5686 8.88524 13.5686C8.84995 13.5686 8.82114 13.6734 8.82114 13.8015C8.82114 13.9296 8.79553 14.0345 8.76416 14.0345C8.7328 14.0345 8.68837 14.1543 8.66537 14.3007C8.64237 14.4471 8.59454 14.5669 8.55899 14.5669C8.51874 14.5669 8.49444 15.0428 8.49444 15.8313C8.49444 16.5749 8.51972 17.0958 8.55579 17.0958C8.58951 17.0958 8.63694 17.2306 8.66118 17.3953C8.68543 17.56 8.73136 17.6948 8.76325 17.6948C8.79507 17.6948 8.82114 17.7718 8.82114 17.8659C8.82114 17.96 8.85793 18.0788 8.90281 18.1298C9.10668 18.3613 9.14784 18.4281 9.14784 18.5271C9.14784 18.5852 9.22135 18.7022 9.31119 18.787C9.40104 18.8719 9.47455 18.9624 9.47455 18.9883C9.47455 19.0608 9.65279 19.2254 9.73127 19.2254C9.76975 19.2254 9.80125 19.2575 9.80125 19.2967C9.80125 19.3766 9.9629 19.5582 10.0341 19.5582C10.0595 19.5582 10.1484 19.6331 10.2317 19.7246C10.315 19.8161 10.4139 19.891 10.4515 19.891C10.4892 19.891 10.5788 19.9508 10.6507 20.0241C10.7693 20.1449 10.7814 20.2459 10.7814 21.1221C10.7814 21.6611 10.8078 22.0871 10.8411 22.0871C10.874 22.0871 10.9216 22.3117 10.9468 22.5863C10.9721 22.8608 11.0187 23.0854 11.0504 23.0854C11.0821 23.0854 11.1081 23.2651 11.1081 23.4847C11.1081 23.7043 11.1371 23.884 11.1726 23.884C11.2082 23.884 11.256 24.0038 11.279 24.1502C11.302 24.2966 11.3464 24.4164 11.3778 24.4164C11.4092 24.4164 11.4348 24.5212 11.4348 24.6493C11.4348 24.7775 11.4629 24.8823 11.4972 24.8823C11.5315 24.8823 11.5788 24.9871 11.6024 25.1152C11.626 25.2433 11.6715 25.3481 11.7034 25.3481C11.7353 25.3481 11.7615 25.423 11.7615 25.5145C11.7615 25.606 11.7877 25.6809 11.8198 25.6809C11.8518 25.6809 11.8965 25.7558 11.919 25.8473C11.9415 25.9388 11.9889 26.0136 12.0241 26.0136C12.0594 26.0136 12.0882 26.0586 12.0882 26.1135C12.0882 26.1684 12.1144 26.2133 12.1465 26.2133C12.1785 26.2133 12.2232 26.2882 12.2457 26.3797C12.2682 26.4712 12.3156 26.5461 12.3508 26.5461C12.3861 26.5461 12.4149 26.5781 12.4149 26.6173C12.4149 26.6566 12.4517 26.7304 12.4966 26.7814C12.6905 27.0017 12.7416 27.0769 12.7416 27.1422C12.7416 27.1804 12.7731 27.2116 12.8116 27.2116C12.9021 27.2116 13.0683 27.3809 13.0683 27.473C13.0683 27.5122 13.0998 27.5443 13.1383 27.5443C13.2288 27.5443 13.395 27.7136 13.395 27.8058C13.395 27.845 13.4578 27.8771 13.5345 27.8771C13.6113 27.8771 13.7421 27.9519 13.8254 28.0434C13.9087 28.135 14.037 28.2098 14.1106 28.2098C14.1842 28.2098 14.2444 28.2392 14.2444 28.2751C14.2444 28.311 14.3179 28.3592 14.4078 28.3821C14.4976 28.4051 14.5711 28.4506 14.5711 28.4832C14.5711 28.5159 14.674 28.5426 14.7998 28.5426C14.9256 28.5426 15.0285 28.5687 15.0285 28.6006C15.0285 28.6326 15.1461 28.6778 15.2899 28.7012C15.4336 28.7247 15.5512 28.7734 15.5512 28.8096C15.5512 28.8509 16.0966 28.8753 17.0214 28.8753C17.923 28.8753 18.4916 28.8505 18.4916 28.811C18.4916 28.7757 18.6386 28.7269 18.8183 28.7027C18.9979 28.6784 19.145 28.6324 19.145 28.6005C19.145 28.5687 19.2479 28.5426 19.3737 28.5426C19.4994 28.5426 19.6023 28.514 19.6023 28.479C19.6023 28.4441 19.7053 28.3958 19.831 28.3718C19.9568 28.3478 20.0597 28.3015 20.0597 28.269C20.0597 28.2364 20.1332 28.2098 20.2231 28.2098C20.3129 28.2098 20.3864 28.1831 20.3864 28.1505C20.3864 28.1179 20.4599 28.0723 20.5498 28.0494C20.6396 28.0264 20.7131 27.9782 20.7131 27.9424C20.7131 27.9064 20.7866 27.8771 20.8765 27.8771C20.9663 27.8771 21.0398 27.8504 21.0398 27.8177C21.0398 27.7851 21.1133 27.7396 21.2032 27.7166C21.293 27.6937 21.3665 27.6455 21.3665 27.6096C21.3665 27.5737 21.4267 27.5443 21.5004 27.5443C21.5739 27.5443 21.7023 27.4694 21.7855 27.3779C21.8688 27.2864 21.9997 27.2116 22.0765 27.2116C22.1569 27.2116 22.216 27.1693 22.216 27.1117C22.216 27.0568 22.2601 27.0119 22.314 27.0119C22.3679 27.0119 22.412 26.982 22.412 26.9454C22.412 26.9088 22.4575 26.8788 22.5131 26.8788C22.5687 26.8788 22.6824 26.8039 22.7656 26.7124C22.8489 26.6209 22.9378 26.5461 22.9632 26.5461C22.9886 26.5461 23.0504 26.5087 23.1005 26.4629C23.3167 26.2653 23.3906 26.2133 23.4547 26.2133C23.4921 26.2133 23.5228 26.1684 23.5228 26.1135C23.5228 26.0586 23.5536 26.0136 23.5913 26.0136C23.6808 26.0136 25.287 24.3778 25.287 24.2866C25.287 24.2482 25.3311 24.2168 25.385 24.2168C25.4389 24.2168 25.483 24.1847 25.483 24.1455C25.483 24.1062 25.5198 24.0324 25.5647 23.9814C25.7455 23.776 25.8097 23.6879 25.8097 23.6449C25.8097 23.6201 25.8832 23.5304 25.9731 23.4456C26.0629 23.3608 26.1364 23.2451 26.1364 23.1884C26.1364 23.1317 26.1658 23.0854 26.2018 23.0854C26.2377 23.0854 26.2671 23.0405 26.2671 22.9856C26.2671 22.9307 26.3112 22.8857 26.3651 22.8857C26.4216 22.8857 26.4631 22.8256 26.4631 22.7437C26.4631 22.6655 26.5366 22.5322 26.6265 22.4473C26.7163 22.3625 26.7898 22.2447 26.7898 22.1854C26.7898 22.1261 26.8266 22.0359 26.8715 21.9848C27.0801 21.748 27.1165 21.6844 27.1165 21.5575C27.1165 21.4828 27.1427 21.4216 27.1748 21.4216C27.2068 21.4216 27.2515 21.3468 27.2741 21.2552C27.2966 21.1637 27.3439 21.0889 27.3791 21.0889C27.4144 21.0889 27.4432 20.999 27.4432 20.8892C27.4432 20.7794 27.4726 20.6896 27.5086 20.6896C27.5445 20.6896 27.5739 20.6287 27.5739 20.5544C27.5739 20.48 27.618 20.4019 27.6719 20.3809C27.7324 20.3572 27.7699 20.2561 27.7699 20.1168C27.7699 19.9926 27.7993 19.891 27.8353 19.891C27.8712 19.891 27.9006 19.8182 27.9006 19.7293C27.9006 19.6405 27.9447 19.5228 27.9986 19.4679C28.0525 19.413 28.0966 19.2611 28.0966 19.1303C28.0966 18.9996 28.1233 18.8927 28.1558 18.8927C28.1884 18.8927 28.2353 18.7429 28.26 18.5599C28.2847 18.3769 28.3315 18.2272 28.3641 18.2272C28.3967 18.2272 28.4233 18.0774 28.4233 17.8944C28.4233 17.7114 28.4489 17.5617 28.4802 17.5617C28.5115 17.5617 28.5579 17.2921 28.5832 16.9627C28.6084 16.6333 28.6563 16.3638 28.6896 16.3638C28.7249 16.3638 28.75 15.6877 28.75 14.7333C28.75 13.8169 28.7244 13.1028 28.6915 13.1028C28.6593 13.1028 28.6121 12.8632 28.5867 12.5703C28.5613 12.2775 28.5141 12.0379 28.4819 12.0379C28.4497 12.0379 28.4233 11.8582 28.4233 11.6386C28.4233 11.419 28.3943 11.2393 28.3588 11.2393C28.3232 11.2393 28.2754 11.1195 28.2524 10.9731C28.2294 10.8267 28.185 10.7069 28.1536 10.7069C28.1222 10.7069 28.0966 10.6021 28.0966 10.474C28.0966 10.3459 28.071 10.2411 28.0397 10.2411C28.0083 10.2411 27.9639 10.1213 27.9409 9.97485C27.9179 9.82844 27.87 9.70865 27.8345 9.70865C27.799 9.70865 27.7699 9.60383 27.7699 9.47572C27.7699 9.34761 27.7411 9.24279 27.7058 9.24279C27.6706 9.24279 27.6233 9.16792 27.6008 9.07641C27.5782 8.98491 27.5335 8.91004 27.5015 8.91004C27.4694 8.91004 27.4432 8.83517 27.4432 8.74366C27.4432 8.65215 27.417 8.57728 27.3849 8.57728C27.3529 8.57728 27.3082 8.50241 27.2857 8.4109C27.2631 8.3194 27.2158 8.24453 27.1806 8.24453C27.1453 8.24453 27.1165 8.16966 27.1165 8.07815C27.1165 7.98664 27.0877 7.91177 27.0524 7.91177C27.0172 7.91177 26.9699 7.8369 26.9474 7.74539C26.9248 7.65389 26.8801 7.57902 26.8481 7.57902C26.816 7.57902 26.7898 7.50415 26.7898 7.41264C26.7898 7.30909 26.7528 7.24626 26.6918 7.24626C26.6379 7.24626 26.5938 7.20134 26.5938 7.14644C26.5938 7.09153 26.5644 7.04661 26.5285 7.04661C26.4925 7.04661 26.4631 7.00029 26.4631 6.94359C26.4631 6.88695 26.3896 6.77122 26.2998 6.68644C26.2099 6.60158 26.1364 6.46828 26.1364 6.39008C26.1364 6.30816 26.0949 6.248 26.0384 6.248C25.9845 6.248 25.9404 6.21672 25.9404 6.17845C25.9404 6.14019 25.8669 6.03397 25.777 5.94246C25.6872 5.85095 25.6137 5.74547 25.6137 5.70807C25.6137 5.67067 25.5108 5.54123 25.385 5.42044C25.2592 5.29958 25.1563 5.17965 25.1563 5.1539C25.1563 5.08162 24.978 4.91698 24.8996 4.91698C24.8611 4.91698 24.8296 4.8849 24.8296 4.8457C24.8296 4.75353 24.6634 4.58422 24.5729 4.58422C24.5344 4.58422 24.5029 4.55214 24.5029 4.51295C24.5029 4.42077 24.3367 4.25147 24.2462 4.25147C24.2077 4.25147 24.1762 4.21939 24.1762 4.18019C24.1762 4.10159 24.015 3.91871 23.9457 3.91871C23.9216 3.91871 23.7579 3.76897 23.582 3.58596C23.406 3.40294 23.2178 3.2532 23.1637 3.2532C23.1096 3.2532 23.0654 3.22325 23.0654 3.18665C23.0654 3.15005 23.0213 3.1201 22.9674 3.1201C22.9135 3.1201 22.8694 3.07518 22.8694 3.02027C22.8694 2.96537 22.8379 2.92045 22.7994 2.92045C22.7608 2.92045 22.6884 2.88305 22.6383 2.83726C22.4221 2.63974 22.3482 2.58769 22.2841 2.58769C22.2466 2.58769 22.216 2.56101 22.216 2.52833C22.216 2.49572 22.1425 2.4502 22.0526 2.42724C21.9628 2.40428 21.8893 2.3561 21.8893 2.32022C21.8893 2.28429 21.8265 2.25494 21.7498 2.25494C21.673 2.25494 21.5421 2.18007 21.4588 2.08856C21.3756 1.99705 21.2472 1.92218 21.1737 1.92218C21.1 1.92218 21.0398 1.89223 21.0398 1.85563C21.0398 1.81903 20.9801 1.78908 20.9071 1.78908C20.8341 1.78908 20.7574 1.74416 20.7368 1.68925C20.7161 1.63435 20.6288 1.58943 20.5428 1.58943C20.4568 1.58943 20.3864 1.56281 20.3864 1.53026C20.3864 1.49779 20.2835 1.45147 20.1577 1.42744C20.032 1.40342 19.929 1.35517 19.929 1.32023C19.929 1.28529 19.8555 1.25667 19.7657 1.25667C19.6759 1.25667 19.6023 1.22672 19.6023 1.19012C19.6023 1.15352 19.5309 1.12357 19.4436 1.12357C19.3564 1.12357 19.2409 1.07865 19.187 1.02374C19.1331 0.968839 18.984 0.923917 18.8556 0.923917C18.7272 0.923917 18.6222 0.897829 18.6222 0.865885C18.6222 0.83394 18.5046 0.788686 18.3609 0.76526C18.2171 0.741834 18.0995 0.693118 18.0995 0.656914C18.0995 0.620777 17.9525 0.591162 17.7728 0.591162C17.5931 0.591162 17.4461 0.564276 17.4461 0.531333C17.4461 0.498457 17.2403 0.45054 16.9887 0.424785C16.7372 0.399029 16.5313 0.351113 16.5313 0.318236C16.5313 0.285294 16.0903 0.258407 15.5512 0.258407C14.9414 0.258407 14.5711 0.233251 14.5711 0.191856C14.5711 0.155253 14.4829 0.125305 14.3751 0.125305C14.2673 0.125305 14.1791 0.155253 14.1791 0.191856Z" fill="white"/>
</svg>
