<svg width="30" height="49" viewBox="0 0 30 49" fill="none" xmlns="http://www.w3.org/2000/svg">
<path fill-rule="evenodd" clip-rule="evenodd" d="M12.0686 0.244757C5.59433 1.68653 0.969727 7.51209 0.969727 14.2254C0.969727 16.9807 1.43609 18.5106 4.09028 24.4611C7.65167 32.4452 9.998 37.7278 12.6003 43.621C13.9052 46.576 15.0284 48.9967 15.096 49C15.1637 49.0031 16.46 46.2094 17.977 42.7913C19.4937 39.3732 22.4132 32.8168 24.4645 28.2212C28.7167 18.6953 28.8827 18.2637 29.1929 15.9158C29.7632 11.6009 28.2587 7.30821 25.0475 4.08857C23.3799 2.4166 21.2228 1.11395 19.0184 0.448008C17.366 -0.0512419 13.8588 -0.153807 12.0686 0.244757ZM18.2718 7.39908C19.8322 8.13793 21.1058 9.39796 21.8645 10.9534C22.3279 11.904 22.4551 12.4854 22.5109 13.9121C22.6009 16.2126 22.1062 17.6258 20.6471 19.2332C16.9399 23.3174 10.6052 22.3185 8.25869 17.2794C7.79502 16.2836 7.71204 15.8203 7.71204 14.2254C7.71204 12.6306 7.79502 12.1672 8.25869 11.1714C10.0874 7.24429 14.4633 5.59572 18.2718 7.39908Z" fill="#BF3535"/>
</svg>
